<svg xmlns="http://www.w3.org/2000/svg" xmlns:xlink="http://www.w3.org/1999/xlink" version="1.1" width="1000" height="1000" viewBox="0 0 1000 1000" xml:space="preserve">
<desc>Created with Fabric.js 3.5.0</desc>
<defs>
</defs>
<rect x="0" y="0" width="100%" height="100%" fill="rgba(255,255,255,0)"/>
<g transform="matrix(37.2779 0 0 37.2779 425.3754 412.0533)" id="467689">
<path style="stroke: none; stroke-width: 0; stroke-dasharray: none; stroke-linecap: butt; stroke-dashoffset: 0; stroke-linejoin: miter; stroke-miterlimit: 4; is-custom-font: none; font-file-url: none; fill: rgb(57,112,228); fill-rule: nonzero; opacity: 1;" vector-effect="non-scaling-stroke" transform=" translate(-12, -12.1153)" d="M 11.1142 1.43752 C 11.6726 1.16175 12.3274 1.16175 12.8858 1.43752 L 19.9628 4.9333 C 20.5056 5.20144 20.8978 5.70105 21.0293 6.29205 L 22.7955 14.2294 C 22.925 14.8114 22.7882 15.4208 22.4222 15.8914 L 17.496 22.2276 C 17.1171 22.7149 16.5344 23 15.9171 23 H 8.08294 C 7.46563 23 6.88291 22.7149 6.504 22.2276 L 1.57778 15.8914 C 1.21185 15.4208 1.07497 14.8114 1.20446 14.2294 L 2.9707 6.29205 C 3.10221 5.70105 3.49436 5.20144 4.0372 4.9333 L 11.1142 1.43752 Z" stroke-linecap="round"/>
</g>
<g transform="matrix(1 0 0 1 430.5642 869.1734)" style="" id="809208">
		
<path xml:space="preserve" font-family="Alef" font-size="77" font-style="normal" font-weight="bold" style="stroke: none; stroke-width: 0; stroke-dasharray: none; stroke-linecap: butt; stroke-dashoffset: 0; stroke-linejoin: miter; stroke-miterlimit: 4; is-custom-font: none; font-file-url: none; fill: rgb(95,115,204); fill-rule: nonzero; opacity: 1; white-space: pre;" d="M-257.13-29.88L-224.80-29.88L-224.80-22.17L-246.64-22.17L-246.64-9.91L-231.19-9.91L-231.19-2.20L-246.64-2.20L-246.64 24.19L-257.13 24.19L-257.13-29.88ZM-205.17-8.22L-204.68-8.22Q-203.33-10.21-202.16-11.49L-202.16-11.49Q-201.03-12.73-199.79-13.54Q-198.55-14.35-197.29-14.86Q-196.03-15.36-194.76-15.57Q-193.48-15.78-192.24-15.78L-192.24-15.78Q-191.18-15.78-190.19-15.65Q-189.19-15.51-188.33-15.33L-188.33-15.33Q-188.44-14.27-188.63-13.09Q-188.82-11.90-189.04-10.70Q-189.27-9.50-189.55-8.33Q-189.83-7.17-190.13-6.15L-190.13-6.15Q-192.27-6.57-193.85-6.85Q-195.43-7.13-196.67-7.13L-196.67-7.13Q-197.84-7.13-198.80-6.81Q-199.76-6.49-200.70-5.70Q-201.64-4.91-202.63-3.61Q-203.63-2.32-204.87-0.36L-204.87-0.36L-204.87 24.19L-215.17 24.19L-215.17 0.09Q-215.17-2.09-215.21-3.99Q-215.25-5.89-215.36-7.56Q-215.47-9.24-215.70-10.74Q-215.92-12.24-216.30-13.67L-216.30-13.67Q-213.86-14.31-211.43-14.84Q-209.01-15.36-206.52-15.78L-206.52-15.78Q-206.26-14.99-206.04-14.22Q-205.81-13.45-205.66-12.56Q-205.51-11.68-205.40-10.63Q-205.28-9.57-205.17-8.22L-205.17-8.22ZM-163.17-15.78L-163.17-15.78Q-158.25-15.78-154.64-14.24Q-151.03-12.69-148.68-9.97Q-146.33-7.24-145.18-3.50Q-144.04 0.24-144.04 4.64L-144.04 4.64Q-144.04 9.04-145.18 12.80Q-146.33 16.56-148.68 19.28Q-151.03 22.01-154.64 23.55Q-158.25 25.09-163.17 25.09L-163.17 25.09Q-168.10 25.09-171.71 23.55Q-175.32 22.01-177.67 19.28Q-180.02 16.56-181.16 12.80Q-182.31 9.04-182.31 4.64L-182.31 4.64Q-182.31 0.24-181.16-3.50Q-180.02-7.24-177.67-9.97Q-175.32-12.69-171.71-14.24Q-168.10-15.78-163.17-15.78ZM-163.17-8.41L-163.17-8.41Q-165.88-8.41-167.61-7.39Q-169.34-6.38-170.32-4.61Q-171.29-2.84-171.65-0.46Q-172.01 1.93-172.01 4.64L-172.01 4.64Q-172.01 7.38-171.65 9.77Q-171.29 12.16-170.32 13.92Q-169.34 15.69-167.61 16.71Q-165.88 17.72-163.17 17.72L-163.17 17.72Q-160.47 17.72-158.74 16.71Q-157.01 15.69-156.03 13.92Q-155.05 12.16-154.70 9.77Q-154.34 7.38-154.34 4.64L-154.34 4.64Q-154.34 1.93-154.70-0.46Q-155.05-2.84-156.03-4.61Q-157.01-6.38-158.74-7.39Q-160.47-8.41-163.17-8.41ZM-124.11-8.22L-123.62-8.22Q-122.38-10.10-121.05-11.51Q-119.71-12.92-118.19-13.88Q-116.67-14.84-114.84-15.31Q-113.02-15.78-110.80-15.78L-110.80-15.78Q-108.32-15.78-106.40-15.23Q-104.48-14.69-103.09-13.65Q-101.70-12.62-100.74-11.10Q-99.78-9.57-99.22-7.66L-99.22-7.66Q-98.69-5.74-98.45-3.50Q-98.21-1.26-98.21 1.33L-98.21 1.33L-98.21 24.19L-108.51 24.19L-108.51-1.64Q-108.51-4.87-109.99-6.57Q-111.48-8.26-114.03-8.26L-114.03-8.26Q-115.46-8.26-116.83-7.58Q-118.21-6.90-119.49-5.80Q-120.76-4.69-121.85-3.30Q-122.94-1.90-123.81-0.48L-123.81-0.48L-123.81 24.19L-134.11 24.19L-134.11 0.09Q-134.11-2.96-134.17-5.01Q-134.22-7.05-134.37-8.63L-134.37-8.63Q-134.45-9.42-134.52-10.03Q-134.60-10.63-134.69-11.19Q-134.79-11.75-134.92-12.34Q-135.05-12.92-135.24-13.67L-135.24-13.67Q-132.79-14.31-130.37-14.82Q-127.94-15.33-125.46-15.78L-125.46-15.78Q-125.20-14.99-124.97-14.22Q-124.75-13.45-124.60-12.56Q-124.45-11.68-124.34-10.63Q-124.22-9.57-124.11-8.22L-124.11-8.22ZM-83.92-23.86L-73.62-23.86L-73.62-14.91L-60.46-14.91L-60.46-7.39L-73.62-7.39L-73.62 11.37Q-73.62 13.21-73.45 14.41Q-73.28 15.62-72.83 16.31Q-72.38 17.01-71.59 17.29Q-70.80 17.57-69.56 17.57L-69.56 17.57Q-68.35 17.57-66.75 17.31Q-65.16 17.05-62.98 16.56L-62.98 16.56Q-62.75 17.23-62.47 18.14Q-62.19 19.04-61.90 20.00Q-61.62 20.96-61.36 21.84Q-61.10 22.72-60.87 23.40L-60.87 23.40Q-61.92 23.78-63.33 24.09Q-64.74 24.41-66.28 24.64Q-67.83 24.87-69.41 24.98Q-70.98 25.09-72.38 25.09L-72.38 25.09Q-73.69 25.09-74.97 24.98Q-76.25 24.87-77.39 24.58Q-78.54 24.30-79.52 23.85Q-80.50 23.40-81.21 22.68L-81.21 22.68Q-82.87 21.07-83.39 18.23Q-83.92 15.39-83.92 10.99L-83.92 10.99L-83.92-7.39L-89.56-7.39L-89.56-14.91L-83.92-14.91L-83.92-23.86ZM-21.17 15.35L-18.76 22.42Q-20.30 23.06-22.13 23.55Q-23.95 24.04-25.94 24.38Q-27.94 24.72-29.98 24.90Q-32.03 25.09-33.99 25.09L-33.99 25.09Q-43.88 25.09-48.93 20.34Q-53.99 15.58-53.99 5.77L-53.99 5.77Q-53.99 1.40-52.98-2.51Q-51.96-6.42-49.69-9.37Q-47.41-12.32-43.71-14.05Q-40.00-15.78-34.63-15.78L-34.63-15.78Q-25.23-15.78-20.60-10.80Q-15.98-5.81-15.98 4.41L-15.98 4.41L-15.98 7.38L-43.76 7.38Q-43.69 9.94-43.16 11.89Q-42.64 13.85-41.41 15.18Q-40.19 16.52-38.20 17.21Q-36.21 17.91-33.20 17.91L-33.20 17.91Q-30.57 17.91-27.52 17.25Q-24.48 16.59-21.17 15.35L-21.17 15.35ZM-43.61 0.69L-26.28 0.69Q-26.54-8.60-34.63-8.60L-34.63-8.60Q-38.80-8.60-40.96-6.19Q-43.12-3.78-43.61 0.69L-43.61 0.69ZM4.10-8.22L4.59-8.22Q5.83-10.10 7.16-11.51Q8.50-12.92 10.02-13.88Q11.54-14.84 13.37-15.31Q15.19-15.78 17.41-15.78L17.41-15.78Q19.89-15.78 21.81-15.23Q23.72-14.69 25.12-13.65Q26.51-12.62 27.47-11.10Q28.42-9.57 28.99-7.66L28.99-7.66Q29.51-5.74 29.76-3.50Q30.00-1.26 30.00 1.33L30.00 1.33L30.00 24.19L19.70 24.19L19.70-1.64Q19.70-4.87 18.22-6.57Q16.73-8.26 14.17-8.26L14.17-8.26Q12.75-8.26 11.37-7.58Q10.00-6.90 8.72-5.80Q7.44-4.69 6.35-3.30Q5.26-1.90 4.40-0.48L4.40-0.48L4.40 24.19L-5.90 24.19L-5.90 0.09Q-5.90-2.96-5.96-5.01Q-6.02-7.05-6.17-8.63L-6.17-8.63Q-6.24-9.42-6.32-10.03Q-6.39-10.63-6.49-11.19Q-6.58-11.75-6.71-12.34Q-6.84-12.92-7.03-13.67L-7.03-13.67Q-4.59-14.31-2.16-14.82Q0.26-15.33 2.74-15.78L2.74-15.78Q3.01-14.99 3.23-14.22Q3.46-13.45 3.61-12.56Q3.76-11.68 3.87-10.63Q3.99-9.57 4.10-8.22L4.10-8.22ZM64.10-29.95L74.41-29.95L74.41 11.44L74.41 13.06Q74.41 15.99 74.59 18.34Q74.78 20.69 75.42 23.10L75.42 23.10Q74.22 23.44 73.09 23.72Q71.96 24.00 70.85 24.25Q69.74 24.49 68.62 24.70Q67.49 24.90 66.25 25.09L66.25 25.09Q65.95 24.30 65.74 23.59Q65.53 22.87 65.36 22.05Q65.19 21.22 65.08 20.24Q64.97 19.26 64.89 17.95L64.89 17.95L64.48 17.95Q60.12 25.09 52.15 25.09L52.15 25.09Q48.20 25.09 45.49 23.55Q42.79 22.01 41.11 19.40Q39.44 16.78 38.71 13.34Q37.97 9.90 37.97 6.07L37.97 6.07Q37.97 0.65 39.42-3.43Q40.87-7.51 43.50-10.25Q46.13-13.00 49.80-14.39Q53.46-15.78 57.90-15.78L57.90-15.78Q59.52-15.78 61.04-15.63Q62.56-15.48 64.10-15.25L64.10-15.25L64.10-29.95ZM64.22 10.35L64.22-7.51Q61.21-8.26 58.61-8.26L58.61-8.26Q56.40-8.26 54.50-7.66Q52.60-7.05 51.21-5.70Q49.82-4.35 49.05-2.20Q48.28-0.06 48.28 3.02L48.28 3.02Q48.28 6.22 48.52 8.89Q48.76 11.56 49.55 13.49Q50.34 15.43 51.81 16.50Q53.28 17.57 55.72 17.57L55.72 17.57Q57.49 17.57 58.82 16.86Q60.16 16.14 61.25 14.86L61.25 14.86Q62.07 13.96 62.79 12.82Q63.50 11.67 64.22 10.35L64.22 10.35ZM159.30-29.84L169.60-29.84L163.44 24.19L149.68 24.19L137.23-19.12L124.79 24.19L111.03 24.19L104.86-29.84L115.16-29.84L119.60 10.73L119.67 10.73L131.33-29.84L143.13-29.84L154.79 10.73L154.86 10.73L159.30-29.84ZM208.63 15.35L211.04 22.42Q209.49 23.06 207.67 23.55Q205.85 24.04 203.85 24.38Q201.86 24.72 199.81 24.90Q197.76 25.09 195.81 25.09L195.81 25.09Q185.92 25.09 180.86 20.34Q175.81 15.58 175.81 5.77L175.81 5.77Q175.81 1.40 176.82-2.51Q177.84-6.42 180.11-9.37Q182.39-12.32 186.09-14.05Q189.79-15.78 195.17-15.78L195.17-15.78Q204.57-15.78 209.19-10.80Q213.82-5.81 213.82 4.41L213.82 4.41L213.82 7.38L186.03 7.38Q186.11 9.94 186.63 11.89Q187.16 13.85 188.38 15.18Q189.61 16.52 191.60 17.21Q193.59 17.91 196.60 17.91L196.60 17.91Q199.23 17.91 202.28 17.25Q205.32 16.59 208.63 15.35L208.63 15.35ZM186.18 0.69L203.52 0.69Q203.25-8.60 195.17-8.60L195.17-8.60Q191.00-8.60 188.83-6.19Q186.67-3.78 186.18 0.69L186.18 0.69ZM224.19-29.95L234.38-29.95L234.38-9.87L234.57-9.87Q235.66-11.27 236.90-12.37Q238.14-13.48 239.59-14.27Q241.04-15.06 242.73-15.48Q244.42-15.89 246.45-15.89L246.45-15.89Q250.40-15.89 253.11-14.35Q255.81-12.81 257.49-10.21Q259.16-7.62 259.89-4.18Q260.63-0.74 260.63 3.02L260.63 3.02Q260.63 8.13 259.46 12.20Q258.30 16.26 255.66 19.09Q253.03 21.93 248.76 23.46Q244.50 24.98 238.26 24.98L238.26 24.98Q234.42 24.98 231.02 24.62Q227.62 24.26 224.19 23.78L224.19 23.78L224.19-29.95ZM234.38-1.15L234.38 16.74Q235.93 17.08 237.39 17.27Q238.86 17.46 240.21 17.46L240.21 17.46Q242.39 17.46 244.25 16.89Q246.11 16.33 247.47 15.01Q248.82 13.70 249.57 11.52Q250.33 9.34 250.33 6.07L250.33 6.07Q250.33 2.91 250.06 0.26Q249.80-2.39 249.01-4.31Q248.22-6.23 246.75-7.30Q245.29-8.37 242.88-8.37L242.88-8.37Q241.38-8.37 240.19-7.83Q239.01-7.28 237.99-6.32Q236.98-5.36 236.09-4.05Q235.21-2.73 234.38-1.15L234.38-1.15Z"/></g>
<g transform="matrix(1 0 0 1 535.2613 935.0799)" style="" id="914598">
		
<path xml:space="preserve" font-family="Abhaya Libre" font-size="36" font-style="normal" font-weight="bold" style="stroke: none; stroke-width: 0; stroke-dasharray: none; stroke-linecap: butt; stroke-dashoffset: 0; stroke-linejoin: miter; stroke-miterlimit: 4; is-custom-font: none; font-file-url: none; fill: rgb(82,113,255); fill-rule: nonzero; opacity: 1; white-space: pre;" d="M-138.38-5.04L-138.38-5.04Q-138.38-8.03-141.47-9.19L-141.47-9.19Q-143.09-9.78-145.27-9.78L-145.27-9.78L-156.20-9.78L-156.20-8.84L-153.39-8.84L-153.39 10.36L-156.20 10.36L-156.20 11.31L-144.81 11.31Q-140.10 11.31-137.99 8.46L-137.99 8.46Q-136.90 6.98-136.90 5.19L-136.90 5.19Q-136.90 1.68-140.45 0.38L-140.45 0.38Q-141.40 0.02-142.52-0.15L-142.52-0.15Q-139.57-1.14-138.66-3.53L-138.66-3.53Q-138.38-4.30-138.38-5.04ZM-149.06-8.84L-146.88-8.84Q-142.91-8.77-142.88-4.76L-142.88-4.76Q-142.88-1.87-144.95-0.96L-144.95-0.96Q-145.72-0.61-146.71-0.61L-146.71-0.61L-149.06-0.61L-149.06-8.84ZM-149.06 0.38L-145.90 0.38Q-142.95 0.38-141.96 3.01L-141.96 3.01Q-141.61 3.93-141.61 5.05L-141.61 5.05Q-141.61 8.67-144.00 9.90L-144.00 9.90Q-144.95 10.36-146.18 10.36L-146.18 10.36L-149.06 10.36L-149.06 0.38ZM-131.52 16.93L-131.52 16.93Q-132.12 16.93-132.47 16.02L-132.47 16.02Q-132.93 14.82-133.31 14.54L-133.31 14.54Q-133.70 14.26-134.26 14.26L-134.26 14.26Q-135.46 14.26-135.77 15.28L-135.77 15.28Q-135.84 15.53-135.84 15.74L-135.84 15.74Q-135.84 16.97-134.37 17.67L-134.37 17.67Q-133.45 18.09-132.36 18.09L-132.36 18.09Q-129.48 18.09-127.48 14.68L-127.48 14.68Q-126.70 13.42-126.00 11.63L-126.00 11.63L-120.76-1.77Q-120.38-2.72-119.88-2.82L-119.88-2.82Q-119.74-2.86-119.57-2.86L-119.57-2.86Q-118.83-2.86-118.72-3.32L-118.72-3.32Q-118.69-3.49-118.69-3.74L-118.69-3.74L-124.10-3.74L-124.10-2.86L-121.46-2.86L-125.54 7.41L-129.94-2.86L-127.72-2.86L-127.72-3.74L-135.56-3.74L-135.56-2.86L-133.98-2.86L-127.30 11.80Q-129.09 16.16-130.75 16.79L-130.75 16.79Q-131.13 16.93-131.52 16.93ZM-99.28-10.14L-99.28-10.14Q-103.82-10.14-106.98-7.25L-106.98-7.25Q-110.32-4.19-110.32 0.66L-110.32 0.66Q-110.32 6.25-106.35 9.34L-106.35 9.34Q-103.36 11.66-99.39 11.66L-99.39 11.66Q-94.89 11.66-91.76 8.74L-91.76 8.74Q-88.45 5.65-88.45 0.80L-88.45 0.80Q-88.45-4.97-92.53-7.99L-92.53-7.99Q-95.41-10.14-99.28-10.14ZM-99.28 10.64L-99.28 10.64Q-103.64 10.64-104.87 6.04L-104.87 6.04Q-105.43 3.89-105.43 0.80L-105.43 0.80Q-105.43-8.59-100.05-9.08L-100.05-9.08Q-99.70-9.12-99.39-9.12L-99.39-9.12Q-94.68-9.12-93.66-3.39L-93.66-3.39Q-93.34-1.63-93.34 0.66L-93.34 0.66Q-93.34 9.31-97.70 10.47L-97.70 10.47Q-98.44 10.64-99.28 10.64ZM-78.15 17.07L-80.16 17.07L-80.16 9.97Q-78.68 11.63-75.87 11.66L-75.87 11.66Q-72.53 11.66-70.42 9.09L-70.42 9.09Q-68.55 6.81-68.55 3.33L-68.55 3.33Q-68.55-0.96-71.05-3.00L-71.05-3.00Q-72.56-4.23-74.53-4.23L-74.53-4.23Q-77.45-4.23-79.21-2.05L-79.21-2.05Q-79.88-1.21-80.23-0.22L-80.23-0.22L-80.40-3.74L-86.24-3.74L-86.24-2.86L-84.02-2.86L-84.02 15.18Q-84.02 16.65-85.01 16.93L-85.01 16.93Q-85.46 17.07-86.24 17.07L-86.24 17.07L-86.24 17.99L-77.27 17.99Q-77.27 17.22-77.73 17.11L-77.73 17.11Q-77.94 17.07-78.15 17.07L-78.15 17.07ZM-76.15-2.61L-76.15-2.61Q-72.81-2.54-72.77 3.79L-72.77 3.79Q-72.77 9.80-75.62 10.64L-75.62 10.64Q-76.01 10.75-76.46 10.75L-76.46 10.75Q-78.61 10.75-79.59 8.25L-79.59 8.25Q-80.19 6.67-80.19 4.45L-80.19 4.45Q-80.19-0.01-78.15-1.84L-78.15-1.84Q-77.24-2.61-76.15-2.61ZM-60.61 10.68L-60.61 10.68Q-58.25 10.68-57.69 9.09L-57.69 9.09Q-57.59 8.74-57.59 8.39L-57.59 8.39Q-57.59 6.70-59.80 5.54L-59.80 5.54Q-60.29 5.30-61.35 4.84L-61.35 4.84Q-64.05 3.64-64.97 2.66L-64.97 2.66Q-65.92 1.54-65.92 0.06L-65.92 0.06Q-65.92-2.72-62.89-3.77L-62.89-3.77Q-61.56-4.23-59.91-4.23L-59.91-4.23Q-57.34-4.23-55.69-3.25L-55.69-3.25Q-55.69-4.30-55.13-4.41L-55.13-4.41Q-54.95-4.44-54.77-4.44L-54.77-4.44L-54.77-0.05L-55.83-0.05Q-55.97-3.25-59.34-3.28L-59.34-3.28Q-61.70-3.28-62.26-1.80L-62.26-1.80Q-62.40-1.42-62.40-1.03L-62.40-1.03Q-62.40 0.45-60.29 1.54L-60.29 1.54Q-59.84 1.75-58.82 2.20L-58.82 2.20Q-56.04 3.40-55.13 4.42L-55.13 4.42Q-54.07 5.61-54.07 7.23L-54.07 7.23Q-54.07 10.22-57.16 11.24L-57.16 11.24Q-58.43 11.66-59.98 11.66L-59.98 11.66Q-62.93 11.66-64.93 10.50L-64.93 10.50Q-64.93 11.41-65.39 11.56L-65.39 11.56Q-65.60 11.59-65.88 11.59L-65.88 11.59L-65.88 6.25L-64.76 6.25Q-64.69 10.64-60.61 10.68ZM-52.31-3.63L-52.31-2.72L-49.89-2.72L-49.89 6.42Q-49.57 11.52-45.14 11.70L-45.14 11.70Q-42.36 11.70-41.38 9.48L-41.38 9.48Q-41.03 8.71-40.82 7.62L-40.82 7.62L-41.77 7.48Q-42.54 10.61-44.26 10.64L-44.26 10.64Q-45.74 10.64-45.98 8.64L-45.98 8.64Q-46.02 8.29-46.02 7.93L-46.02 7.93L-46.02-2.72L-41.10-2.72L-41.10-3.63L-46.02-3.63L-46.02-7.71L-49.89-6.97L-49.89-3.63L-52.31-3.63ZM-31.11 10.39L-31.11 10.39L-33.68 10.39L-33.68 2.77Q-33.43-0.61-31.78-1.77L-31.78-1.77Q-31.39-2.02-31.11-2.02L-31.11-2.02Q-30.66-2.02-30.20-1.21L-30.20-1.21Q-29.60-0.08-28.93 0.13L-28.93 0.13Q-28.62 0.23-28.27 0.23L-28.27 0.23Q-27.00 0.23-26.47-1.00L-26.47-1.00Q-26.30-1.38-26.30-1.80L-26.30-1.80Q-26.30-3.49-27.95-3.91L-27.95-3.91Q-28.37-4.02-28.79-4.02L-28.79-4.02Q-30.94-4.02-32.63-2.26L-32.63-2.26Q-33.36-1.45-33.79-0.43L-33.79-0.43L-34.00-3.74L-39.80-3.74L-39.80-2.86L-37.58-2.86L-37.58 8.50Q-37.58 10.01-38.64 10.29L-38.64 10.29Q-39.09 10.39-39.80 10.39L-39.80 10.39L-39.80 11.31L-30.27 11.31Q-30.27 10.50-30.80 10.43L-30.80 10.43Q-30.94 10.39-31.11 10.39ZM-17.26-3.32L-17.26-3.32Q-15.08-3.32-14.66-0.75L-14.66-0.75Q-14.55-0.19-14.55 0.41L-14.55 0.41Q-14.55 2.06-15.75 2.48L-15.75 2.48Q-16.52 2.70-18.00 2.66L-18.00 2.66L-20.71 2.56Q-20.57-2.44-18.07-3.21L-18.07-3.21Q-17.65-3.32-17.26-3.32ZM-10.83 7.76L-10.83 7.76L-11.67 7.48Q-12.69 9.69-14.91 10.39L-14.91 10.39Q-15.64 10.64-16.42 10.64L-16.42 10.64Q-20.53 10.64-20.71 3.64L-20.71 3.64Q-20.71 3.61-20.71 3.57L-20.71 3.57L-17.16 3.64Q-11.88 3.75-10.83 2.13L-10.83 2.13Q-10.48 1.57-10.48 0.80L-10.48 0.80Q-10.48-1.98-13.29-3.39L-13.29-3.39Q-15.05-4.23-17.26-4.23L-17.26-4.23Q-21.30-4.23-23.45-1.31L-23.45-1.31Q-24.96 0.76-24.96 3.72L-24.96 3.72Q-24.96 8.53-21.41 10.61L-21.41 10.61Q-19.51 11.66-17.16 11.66L-17.16 11.66Q-13.15 11.66-11.36 8.81L-11.36 8.81Q-11.04 8.29-10.83 7.76ZM-0.67-3.32L-0.67-3.32Q1.51-3.32 1.93-0.75L1.93-0.75Q2.04-0.19 2.04 0.41L2.04 0.41Q2.04 2.06 0.84 2.48L0.84 2.48Q0.07 2.70-1.41 2.66L-1.41 2.66L-4.11 2.56Q-3.97-2.44-1.48-3.21L-1.48-3.21Q-1.05-3.32-0.67-3.32ZM5.77 7.76L5.77 7.76L4.92 7.48Q3.90 9.69 1.69 10.39L1.69 10.39Q0.95 10.64 0.18 10.64L0.18 10.64Q-3.94 10.64-4.11 3.64L-4.11 3.64Q-4.11 3.61-4.11 3.57L-4.11 3.57L-0.56 3.64Q4.71 3.75 5.77 2.13L5.77 2.13Q6.12 1.57 6.12 0.80L6.12 0.80Q6.12-1.98 3.30-3.39L3.30-3.39Q1.55-4.23-0.67-4.23L-0.67-4.23Q-4.71-4.23-6.86-1.31L-6.86-1.31Q-8.37 0.76-8.37 3.72L-8.37 3.72Q-8.37 8.53-4.82 10.61L-4.82 10.61Q-2.92 11.66-0.56 11.66L-0.56 11.66Q3.45 11.66 5.24 8.81L5.24 8.81Q5.55 8.29 5.77 7.76ZM31.75 5.54L31.75 5.54Q31.75 2.56 28.44 0.52L28.44 0.52Q27.95 0.23 24.64-1.38L24.64-1.38Q21.62-2.89 20.88-4.34L20.88-4.34Q20.50-5.11 20.50-5.92L20.50-5.92Q20.50-8.03 22.54-8.80L22.54-8.80Q23.34-9.12 24.26-9.12L24.26-9.12Q27.14-9.12 28.62-7.04L28.62-7.04Q29.60-5.64 29.60-3.70L29.60-3.70L30.87-3.70L30.87-10.00Q29.88-10.00 29.74-9.33L29.74-9.33Q29.71-9.08 29.71-8.77L29.71-8.77Q26.93-10.14 23.73-10.14L23.73-10.14Q19.65-10.14 17.51-7.96L17.51-7.96Q16.10-6.52 16.10-4.55L16.10-4.55Q16.10-1.59 19.41 0.41L19.41 0.41Q19.93 0.69 23.27 2.34L23.27 2.34Q26.37 3.86 27.11 5.33L27.11 5.33Q27.49 6.07 27.49 6.88L27.49 6.88Q27.49 9.34 25.21 10.25L25.21 10.25Q24.29 10.64 23.17 10.64L23.17 10.64Q18.98 10.64 17.65 6.53L17.65 6.53Q17.30 5.37 17.19 4.00L17.19 4.00L15.93 4.00L15.93 11.38Q16.80 11.38 16.98 10.85L16.98 10.85Q17.05 10.54 17.05 9.87L17.05 9.87Q19.79 11.66 23.48 11.66L23.48 11.66Q27.81 11.66 30.13 9.41L30.13 9.41Q31.75 7.83 31.75 5.54ZM38.71 3.72L38.71 3.72Q38.71-1.63 40.61-2.86L40.61-2.86Q41.38-3.32 42.40-3.32L42.40-3.32Q45.07-3.32 45.77-0.29L45.77-0.29Q46.12 1.18 46.12 3.57L46.12 3.57Q46.12 9.23 43.98 10.39L43.98 10.39Q43.28 10.75 42.40 10.75L42.40 10.75Q39.76 10.75 39.06 7.72L39.06 7.72Q38.71 6.21 38.71 3.72ZM42.54-4.23L42.54-4.23Q38.53-4.23 36.21-1.49L36.21-1.49Q34.45 0.62 34.45 3.57L34.45 3.57Q34.45 7.65 37.34 9.97L37.34 9.97Q39.45 11.66 42.29 11.66L42.29 11.66Q46.20 11.66 48.52 8.85L48.52 8.85Q50.34 6.63 50.34 3.57L50.34 3.57Q50.34-0.54 47.39-2.72L47.39-2.72Q45.35-4.23 42.54-4.23ZM60.61 10.39L60.61 10.39L58.82 10.39L58.82-11.54L52.24-11.54L52.24-10.63L54.95-10.63L54.95 8.43Q54.95 9.94 53.89 10.25L53.89 10.25Q53.37 10.39 52.24 10.39L52.24 10.39L52.24 11.31L61.49 11.31Q61.49 10.54 61.03 10.43L61.03 10.43Q60.82 10.39 60.61 10.39ZM80.40 10.39L80.40 10.39L79.03 10.39L79.03-3.74L73.05-3.74L73.05-2.86L75.16-2.86L75.13 5.61Q74.95 8.43 73.09 9.55L73.09 9.55Q72.39 9.94 71.68 9.94L71.68 9.94Q69.36 9.94 69.01 7.30L69.01 7.30Q68.94 6.84 68.94 6.39L68.94 6.39L68.94-3.74L62.82-3.74L62.82-2.86L65.07-2.86L65.07 5.82Q65.11 11.63 70.10 11.66L70.10 11.66Q72.95 11.66 74.64 9.27L74.64 9.27Q74.99 8.74 75.23 8.22L75.23 8.22L75.41 11.31L81.25 11.31Q81.25 10.50 80.79 10.43L80.79 10.43Q80.61 10.39 80.40 10.39ZM82.65-3.63L82.65-2.72L85.08-2.72L85.08 6.42Q85.39 11.52 89.82 11.70L89.82 11.70Q92.60 11.70 93.59 9.48L93.59 9.48Q93.94 8.71 94.15 7.62L94.15 7.62L93.20 7.48Q92.43 10.61 90.70 10.64L90.70 10.64Q89.23 10.64 88.98 8.64L88.98 8.64Q88.95 8.29 88.95 7.93L88.95 7.93L88.95-2.72L93.87-2.72L93.87-3.63L88.95-3.63L88.95-7.71L85.08-6.97L85.08-3.63L82.65-3.63ZM102.87 10.39L102.87 10.39L101.43 10.39L101.43-3.74L95.27-3.74L95.27-2.86L97.56-2.86L97.56 8.50Q97.56 10.01 96.40 10.29L96.40 10.29Q95.98 10.39 95.27 10.39L95.27 10.39L95.27 11.31L103.71 11.31Q103.71 10.50 103.18 10.43L103.18 10.43Q103.04 10.39 102.87 10.39ZM101.78-8.52L101.78-8.52Q101.78-9.96 100.48-10.66L100.48-10.66Q99.95-10.94 99.39-10.94L99.39-10.94Q97.95-10.94 97.28-9.64L97.28-9.64Q97.00-9.08 97.00-8.52L97.00-8.52Q97.00-7.04 98.30-6.41L98.30-6.41Q98.82-6.16 99.39-6.16L99.39-6.16Q100.83-6.16 101.50-7.39L101.50-7.39Q101.78-7.92 101.78-8.52ZM109.97 3.72L109.97 3.72Q109.97-1.63 111.87-2.86L111.87-2.86Q112.64-3.32 113.66-3.32L113.66-3.32Q116.33-3.32 117.04-0.29L117.04-0.29Q117.39 1.18 117.39 3.57L117.39 3.57Q117.39 9.23 115.24 10.39L115.24 10.39Q114.54 10.75 113.66 10.75L113.66 10.75Q111.02 10.75 110.32 7.72L110.32 7.72Q109.97 6.21 109.97 3.72ZM113.80-4.23L113.80-4.23Q109.79-4.23 107.47-1.49L107.47-1.49Q105.71 0.62 105.71 3.57L105.71 3.57Q105.71 7.65 108.60 9.97L108.60 9.97Q110.71 11.66 113.55 11.66L113.55 11.66Q117.46 11.66 119.78 8.85L119.78 8.85Q121.61 6.63 121.61 3.57L121.61 3.57Q121.61-0.54 118.65-2.72L118.65-2.72Q116.61-4.23 113.80-4.23ZM130.78 10.39L130.78 10.39L129.69 10.39L129.73 1.71Q129.97-1.10 131.84-2.16L131.84-2.16Q132.50-2.51 133.17-2.51L133.17-2.51Q135.14-2.51 135.67-0.43L135.67-0.43Q135.84 0.20 135.84 0.97L135.84 0.97L135.84 8.50Q135.84 9.97 135.04 10.25L135.04 10.25Q134.65 10.39 133.91 10.39L133.91 10.39L133.91 11.31L141.96 11.31Q141.96 10.54 141.50 10.43L141.50 10.43Q141.29 10.39 141.08 10.39L141.08 10.39L139.71 10.39L139.71 1.50Q139.71-2.65 136.83-3.84L136.83-3.84Q135.91-4.23 134.86-4.23L134.86-4.23Q132.33-4.23 130.57-2.23L130.57-2.23Q130.01-1.56 129.66-0.82L129.66-0.82L129.48-3.74L123.57-3.74L123.57-2.86L125.82-2.86L125.82 8.50Q125.82 10.04 124.66 10.29L124.66 10.29Q124.21 10.39 123.57 10.39L123.57 10.39L123.57 11.31L131.66 11.31Q131.66 10.54 131.20 10.43L131.20 10.43Q130.99 10.39 130.78 10.39ZM149.41 10.68L149.41 10.68Q151.77 10.68 152.33 9.09L152.33 9.09Q152.44 8.74 152.44 8.39L152.44 8.39Q152.44 6.70 150.22 5.54L150.22 5.54Q149.73 5.30 148.68 4.84L148.68 4.84Q145.97 3.64 145.05 2.66L145.05 2.66Q144.11 1.54 144.11 0.06L144.11 0.06Q144.11-2.72 147.13-3.77L147.13-3.77Q148.46-4.23 150.12-4.23L150.12-4.23Q152.68-4.23 154.34-3.25L154.34-3.25Q154.34-4.30 154.90-4.41L154.90-4.41Q155.07-4.44 155.25-4.44L155.25-4.44L155.25-0.05L154.20-0.05Q154.05-3.25 150.68-3.28L150.68-3.28Q148.32-3.28 147.76-1.80L147.76-1.80Q147.62-1.42 147.62-1.03L147.62-1.03Q147.62 0.45 149.73 1.54L149.73 1.54Q150.19 1.75 151.21 2.20L151.21 2.20Q153.98 3.40 154.90 4.42L154.90 4.42Q155.95 5.61 155.95 7.23L155.95 7.23Q155.95 10.22 152.86 11.24L152.86 11.24Q151.59 11.66 150.05 11.66L150.05 11.66Q147.09 11.66 145.09 10.50L145.09 10.50Q145.09 11.41 144.63 11.56L144.63 11.56Q144.42 11.59 144.14 11.59L144.14 11.59L144.14 6.25L145.27 6.25Q145.34 10.64 149.41 10.68Z"/></g>
<g transform="matrix(22.7466 0 0 22.7466 424.5627 412.0534)" id="534231">
<g style="" vector-effect="non-scaling-stroke">
		<g transform="matrix(1 0 0 1 0 0)">
<path style="stroke: none; stroke-width: 1; stroke-dasharray: none; stroke-linecap: butt; stroke-dashoffset: 0; stroke-linejoin: miter; stroke-miterlimit: 4; is-custom-font: none; font-file-url: none; fill: none; fill-rule: nonzero; opacity: 1;" transform=" translate(-12, -12)" d="M 0 0 h 24 v 24 H 0 z" stroke-linecap="round"/>
</g>
		<g transform="matrix(1 0 0 1 0 0)">
<path style="stroke: none; stroke-width: 1; stroke-dasharray: none; stroke-linecap: butt; stroke-dashoffset: 0; stroke-linejoin: miter; stroke-miterlimit: 4; is-custom-font: none; font-file-url: none; fill: rgb(255,255,255); fill-rule: nonzero; opacity: 1;" transform=" translate(-12, -12)" d="M 12 13.5 a 1.5 1.5 0 1 1 0 -3 a 1.5 1.5 0 0 1 0 3 z m -0.528 2.994 c 0.175 0.21 0.351 0.414 0.528 0.609 c 0.177 -0.195 0.353 -0.398 0.528 -0.609 a 24.883 24.883 0 0 1 -1.056 0 z m -1.995 -0.125 a 20.678 20.678 0 0 1 -2.285 -0.368 c -0.075 0.35 -0.132 0.69 -0.17 1.016 c -0.19 1.583 0.075 2.545 0.478 2.777 c 0.403 0.233 1.368 -0.019 2.645 -0.974 c 0.263 -0.197 0.528 -0.416 0.794 -0.655 a 20.678 20.678 0 0 1 -1.462 -1.796 z m 7.331 -0.368 c -0.717 0.16 -1.483 0.284 -2.285 0.368 a 20.678 20.678 0 0 1 -1.462 1.796 c 0.266 0.24 0.531 0.458 0.794 0.655 c 1.277 0.955 2.242 1.207 2.645 0.974 c 0.403 -0.232 0.667 -1.194 0.479 -2.777 a 11.36 11.36 0 0 0 -0.17 -1.016 z m 1.45 -0.387 c 0.577 2.639 0.274 4.74 -1.008 5.48 c -1.282 0.74 -3.253 -0.048 -5.25 -1.867 c -1.997 1.819 -3.968 2.606 -5.25 1.866 c -1.282 -0.74 -1.585 -2.84 -1.009 -5.48 C 3.167 14.794 1.5 13.48 1.5 12 s 1.667 -2.793 4.241 -3.614 c -0.576 -2.639 -0.273 -4.74 1.009 -5.48 c 1.282 -0.74 3.253 0.048 5.25 1.867 c 1.997 -1.819 3.968 -2.606 5.25 -1.866 c 1.282 0.74 1.585 2.84 1.009 5.48 C 20.833 9.206 22.5 10.52 22.5 12 s -1.667 2.793 -4.241 3.614 z m -7.32 -9.779 a 11.36 11.36 0 0 0 -0.793 -0.655 C 8.868 4.225 7.903 3.973 7.5 4.206 c -0.403 0.232 -0.667 1.194 -0.479 2.777 c 0.04 0.327 0.096 0.666 0.17 1.016 a 20.678 20.678 0 0 1 2.286 -0.368 c 0.475 -0.653 0.965 -1.254 1.462 -1.796 z m 3.585 1.796 c 0.802 0.084 1.568 0.209 2.285 0.368 c 0.075 -0.35 0.132 -0.69 0.17 -1.016 c 0.19 -1.583 -0.075 -2.545 -0.478 -2.777 c -0.403 -0.233 -1.368 0.019 -2.645 0.974 a 11.36 11.36 0 0 0 -0.794 0.655 c 0.497 0.542 0.987 1.143 1.462 1.796 z m -1.995 -0.125 c -0.175 -0.21 -0.351 -0.414 -0.528 -0.609 c -0.177 0.195 -0.353 0.398 -0.528 0.609 a 24.884 24.884 0 0 1 1.056 0 z m -4.156 7.198 a 24.884 24.884 0 0 1 -0.528 -0.914 c -0.095 0.257 -0.183 0.51 -0.263 0.761 c 0.257 0.056 0.521 0.107 0.79 0.153 z m 1.932 0.234 a 22.897 22.897 0 0 0 3.392 0 A 22.897 22.897 0 0 0 15.392 12 a 22.897 22.897 0 0 0 -1.696 -2.938 a 22.897 22.897 0 0 0 -3.392 0 A 22.897 22.897 0 0 0 8.608 12 a 22.897 22.897 0 0 0 1.696 2.938 z m 5.852 -4.728 c 0.095 -0.257 0.183 -0.51 0.263 -0.761 a 17.974 17.974 0 0 0 -0.79 -0.153 a 24.884 24.884 0 0 1 0.527 0.914 z M 6.13 9.837 c -0.34 0.11 -0.662 0.23 -0.964 0.36 C 3.701 10.825 3 11.535 3 12 c 0 0.465 0.7 1.175 2.166 1.803 c 0.302 0.13 0.624 0.25 0.964 0.36 c 0.222 -0.7 0.497 -1.426 0.825 -2.163 a 20.678 20.678 0 0 1 -0.825 -2.163 z m 1.45 -0.388 c 0.081 0.25 0.169 0.504 0.264 0.76 a 24.884 24.884 0 0 1 0.528 -0.913 c -0.27 0.046 -0.534 0.097 -0.791 0.153 z m 10.29 4.714 c 0.34 -0.11 0.662 -0.23 0.964 -0.36 C 20.299 13.175 21 12.465 21 12 c 0 -0.465 -0.7 -1.175 -2.166 -1.803 a 11.36 11.36 0 0 0 -0.964 -0.36 c -0.222 0.7 -0.497 1.426 -0.825 2.163 c 0.328 0.737 0.603 1.462 0.825 2.163 z m -1.45 0.388 c -0.081 -0.25 -0.169 -0.504 -0.264 -0.76 a 24.884 24.884 0 0 1 -0.528 0.913 c 0.27 -0.046 0.534 -0.097 0.791 -0.153 z" stroke-linecap="round"/>
</g>
</g>
</g>
</svg>